Coordinates
version=1
nRows=30
nColumns=30
inDegrees=yes

Units are S.I. units (second, meters, Newtons, ...)
Angles are in degrees.

endheader
time	floatyaw	floatroll	floatpitch	floatx	floaty	floatz	pro_sup_l	deviation_l	flexion_l	cmc_flexion_l	cmc_abduction_l	mp_flexion_l	ip_flexion_l	2mcp_flexion_l	2mcp_abduction_l	2pm_flexion_l	2md_flexion_l	3mcp_flexion_l	3mcp_abduction_l	3pm_flexion_l	3md_flexion_l	4mcp_flexion_l	4mcp_abduction_l	4pm_flexion_l	4md_flexion_l	5mcp_flexion_l	5mcp_abduction_l	5pm_flexion_l	5md_flexion_l
-0.995000	-160.147433	-5.066637	-73.570646	0.082482	-0.182068	-0.014948	101.638101	2.532588	0.529387	15.881378	8.042239	-25.127841	-41.216001	28.467935	5.726014	41.586442	28.010412	22.188333	3.819256	42.708000	28.470316	10.918124	-4.226065	51.045655	34.745379	-0.906939	-6.505563	61.348986	40.667060
-0.985000	-160.147433	-5.066637	-73.570646	0.082487	-0.182059	-0.014940	101.631631	2.537833	0.538926	15.861862	8.043936	-25.114772	-41.191299	28.481598	5.719296	41.573277	27.995730	22.193229	3.828070	42.667575	28.438554	10.914771	-4.229744	51.043115	34.743115	-0.919860	-6.508268	61.358740	40.675294
-0.975000	-160.147433	-5.066637	-73.570646	0.082495	-0.182057	-0.014936	101.621452	2.539748	0.548042	15.844781	8.039062	-25.104983	-41.169035	28.488201	5.710614	41.565297	27.981560	22.198643	3.834324	42.623764	28.403151	10.901443	-4.234427	51.050225	34.744085	-0.943631	-6.510736	61.369487	40.685875
-0.965000	-160.147433	-5.066637	-73.570646	0.082504	-0.182060	-0.014935	101.609057	2.538256	0.555335	15.831442	8.025573	-25.098232	-41.155244	28.483176	5.702401	41.572262	27.976435	22.200785	3.836015	42.593639	28.377411	10.879230	-4.238442	51.069544	34.748856	-0.972421	-6.510042	61.377053	40.691845
-0.955000	-160.147433	-5.066637	-73.570646	0.082512	-0.182067	-0.014935	101.598207	2.535282	0.560946	15.821370	8.002207	-25.093264	-41.152302	28.466258	5.696654	41.595611	27.983186	22.199069	3.832869	42.583359	28.367267	10.853198	-4.240089	51.095338	34.753857	-0.998683	-6.504037	61.376423	40.686475
-0.945000	-160.147433	-5.066637	-73.570646	0.082520	-0.182071	-0.014935	101.593061	2.533568	0.565602	15.813955	7.969768	-25.090224	-41.160686	28.442406	5.694485	41.628695	27.998039	22.196959	3.826219	42.587853	28.369547	10.830614	-4.238641	51.117760	34.753926	-1.016449	-6.492478	61.365542	40.667376
-0.935000	-160.147433	-5.066637	-73.570646	0.082526	-0.182071	-0.014935	101.596380	2.535356	0.569453	15.810044	7.931870	-25.091718	-41.180969	28.420007	5.696108	41.661345	28.013279	22.199942	3.818265	42.596673	28.375330	10.818162	-4.234802	51.129102	34.745717	-1.023071	-6.477397	61.347220	40.638087
-0.925000	-160.147433	-5.066637	-73.570646	0.082532	-0.182065	-0.014932	101.608235	2.541411	0.571747	15.811995	7.894436	-25.101889	-41.214420	28.407252	5.701043	41.685239	28.021368	22.211819	3.811253	42.601380	28.375703	10.819244	-4.230317	51.127925	34.729729	-1.019184	-6.462590	61.328078	40.606295
-0.915000	-160.147433	-5.066637	-73.570646	0.082535	-0.182055	-0.014928	101.625494	2.550643	0.571541	15.821876	7.864340	-25.123966	-41.261481	28.408797	5.708301	41.696762	28.018017	22.231794	3.806870	42.599892	28.366402	10.832566	-4.226999	51.118870	34.709903	-1.007543	-6.452329	61.315278	40.579911
-0.905000	-160.147433	-5.066637	-73.570646	0.082536	-0.182045	-0.014923	101.642392	2.560483	0.568839	15.838915	7.847979	-25.157382	-41.318766	28.424308	5.716501	41.696600	28.003120	22.254188	3.805909	42.596101	28.349230	10.852658	-4.225769	51.109037	34.691422	-0.991593	-6.449708	61.312879	40.563371
-0.895000	-160.147433	-5.066637	-73.570646	0.082536	-0.182037	-0.014917	101.652241	2.567894	0.565214	15.857985	7.849961	-25.195926	-41.376627	28.449180	5.724083	41.687496	27.979879	22.270951	3.808133	42.596141	28.330224	10.872104	-4.226273	51.103637	34.678226	-0.974430	-6.455328	61.319749	40.556166
-0.885000	-160.147433	-5.066637	-73.570646	0.082534	-0.182032	-0.014910	101.649680	2.570487	0.563373	15.870357	7.871700	-25.228421	-41.419803	28.476928	5.729713	41.671885	27.952824	22.275575	3.812386	42.604195	28.316094	10.884614	-4.227240	51.103389	34.671517	-0.958379	-6.467022	61.330115	40.554126
-0.875000	-160.147433	-5.066637	-73.570646	0.082533	-0.182027	-0.014901	101.632542	2.567158	0.565819	15.866733	7.910281	-25.242327	-41.432117	28.502247	5.732780	41.650506	27.925574	22.266387	3.816925	42.620355	28.310966	10.887690	-4.227316	51.104699	34.669756	-0.944970	-6.480827	61.336485	40.552440
-0.865000	-160.147433	-5.066637	-73.570646	0.082533	-0.182022	-0.014893	101.602663	2.558143	0.573448	15.841235	7.958415	-25.228899	-41.403370	28.523309	5.733697	41.622604	27.899443	22.247559	3.819963	42.641298	28.314941	10.883555	-4.225830	51.102132	34.669863	-0.934892	-6.492672	61.333356	40.548504
-0.855000	-160.147433	-5.066637	-73.570646	0.082536	-0.182015	-0.014886	101.565424	2.544819	0.585066	15.794354	8.005875	-25.187339	-41.334785	28.542109	5.733708	41.587548	27.873718	22.227289	3.820233	42.662620	28.324751	10.877734	-4.223044	51.091686	34.668895	-0.927919	-6.499952	61.319746	40.543010
-0.845000	-160.147433	-5.066637	-73.570646	0.082540	-0.182006	-0.014882	101.528197	2.529561	0.598150	15.733278	8.042180	-25.125894	-41.239914	28.562687	5.734208	41.546747	27.847406	22.213999	3.817416	42.681059	28.335792	10.875945	-4.219843	51.073107	34.665429	-0.922961	-6.502279	61.299316	40.538955
-0.835000	-160.147433	-5.066637	-73.570646	0.082544	-0.181995	-0.014880	101.498240	2.515604	0.610267	15.669413	8.059966	-25.059332	-41.140219	28.588344	5.735913	41.504442	27.821264	22.212408	3.812259	42.695576	28.344462	10.881152	-4.217169	51.050042	34.660146	-0.918254	-6.501261	61.278138	40.539476
-0.825000	-160.147433	-5.066637	-73.570646	0.082546	-0.181982	-0.014879	101.480805	2.506572	0.620169	15.614328	8.057867	-25.003780	-41.057192	28.619348	5.738339	41.466872	27.798801	22.221463	3.806327	42.707132	28.349752	10.892510	-4.215569	51.027977	34.655380	-0.911659	-6.499523	61.261379	40.545862
-0.815000	-160.147433	-5.066637	-73.570646	0.082544	-0.181966	-0.014878	101.478066	2.505413	0.628055	15.575960	8.041237	-24.971070	-41.004724	28.652178	5.739930	41.440343	27.785454	22.235092	3.801466	42.717484	28.353266	10.906433	-4.215039	51.011343	34.653816	-0.901298	-6.499414	61.250754	40.556757
-0.805000	-160.147433	-5.066637	-73.570646	0.082538	-0.181947	-0.014875	101.489149	2.513019	0.635199	15.556528	8.019658	-24.965105	-40.985322	28.680459	5.738866	41.429184	27.786264	22.245230	3.799154	42.727644	28.357664	10.918470	-4.215161	51.001786	34.657052	-0.886642	-6.501946	61.244142	40.568809
-0.795000	-160.147433	-5.066637	-73.570646	0.082529	-0.181925	-0.014871	101.511271	2.527393	0.643445	15.552755	8.002330	-24.981689	-40.991503	28.696966	5.734195	41.434472	27.803395	22.245395	3.799969	42.736999	28.364654	10.924604	-4.215390	50.998680	34.664852	-0.869432	-6.506364	61.237478	40.578267
-0.785000	-160.147433	-5.066637	-73.570646	0.082518	-0.181897	-0.014869	101.541563	2.544116	0.654834	15.557884	7.994310	-25.011395	-41.010741	28.695901	5.726709	41.453915	27.834957	22.233103	3.803330	42.743889	28.373997	10.921747	-4.215353	51.000974	34.675434	-0.853485	-6.510589	61.227722	40.582664
-0.775000	-160.147433	-5.066637	-73.570646	0.082507	-0.181864	-0.014873	101.578535	2.557983	0.671483	15.564237	7.996012	-25.043947	-41.031009	28.674924	5.718976	41.482627	27.875618	22.210136	3.807676	42.747310	28.384083	10.908052	-4.214997	51.008471	34.686395	-0.843298	-6.512294	61.214992	40.581728
-0.765000	-160.147433	-5.066637	-73.570646	0.082495	-0.181822	-0.014888	101.622101	2.564910	0.695724	15.565033	8.005516	-25.072489	-41.044766	28.636639	5.714371	41.514163	27.918267	22.180915	3.811128	42.748153	28.393230	10.883430	-4.214577	51.021452	34.695620	-0.842533	-6.510032	61.202517	40.577195
-0.755000	-160.147433	-5.066637	-73.570646	0.082480	-0.181768	-0.014917	101.672257	2.563360	0.730178	15.555004	8.020916	-25.096188	-41.050631	28.589070	5.715542	41.541530	27.955729	22.150281	3.812435	42.748649	28.400440	10.850091	-4.214542	51.039231	34.701792	-0.853366	-6.503814	61.194586	40.571747
-0.745000	-160.147433	-5.066637	-73.570646	0.082457	-0.181697	-0.014965	101.727684	2.555163	0.776988	15.530371	8.040682	-25.119800	-41.052679	28.544504	5.723211	41.558612	27.982134	22.122224	3.811711	42.750641	28.405376	10.812859	-4.215436	51.059294	34.704596	-0.876167	-6.495095	61.194100	40.567779
-0.735000	-160.147433	-5.066637	-73.570646	0.082417	-0.181604	-0.015032	101.785441	2.545689	0.835748	15.489084	8.062430	-25.150025	-41.057712	28.516309	5.736062	41.562355	27.994263	22.099996	3.810504	42.754851	28.408428	10.779093	-4.217836	51.078152	34.704873	-0.908371	-6.486503	61.201413	40.566564
-0.725000	-160.147433	-5.066637	-73.570646	0.082352	-0.181486	-0.015119	101.841686	2.542909	0.901113	15.431679	8.081726	-25.190549	-41.071500	28.514172	5.751712	41.554983	27.992910	22.086678	3.811118	42.762073	28.411373	10.757832	-4.222235	51.093469	34.704618	-0.942901	-6.481491	61.214992	40.568128
-0.715000	-160.147433	-5.066637	-73.570646	0.082253	-0.181344	-0.015221	101.892542	2.554884	0.962358	15.362283	8.092039	-25.238746	-41.095513	28.539517	5.768029	41.544475	27.983539	22.085100	3.815502	42.774713	28.417791	10.757697	-4.228779	51.105745	34.706371	-0.968513	-6.483589	61.233256	40.571855
-0.705000	-160.147433	-5.066637	-73.570646	0.082116	-0.181182	-0.015336	101.934429	2.586226	1.006527	15.288800	8.085890	-25.286108	-41.125617	28.583830	5.783817	41.542129	27.975193	22.097066	3.824151	42.796351	28.431952	10.783959	-4.236944	51.117928	34.711775	-0.973730	-6.494963	61.256247	40.577443
